<?xml version="1.0" standalone="yes"?>

<svg version="1.1" viewBox="0.0 0.0 887.0 172.0" fill="none" stroke="none" stroke-linecap="square" stroke-miterlimit="10" xmlns="http://www.w3.org/2000/svg" xmlns:xlink="http://www.w3.org/1999/xlink"><clipPath id="p.0"><path d="m0 0l887.0 0l0 172.0l-887.0 0l0 -172.0z" clip-rule="nonzero"></path></clipPath><g clip-path="url(#p.0)"><path fill="#000000" fill-opacity="0.0" d="m0 0l887.32544 0l0 172.61942l-887.32544 0z" fill-rule="nonzero"></path><path fill="#000000" fill-opacity="0.0" d="m23.383202 359.2861l906.9607 0l0 172.34647l-906.9607 0z" fill-rule="nonzero"></path><path fill="#000000" fill-opacity="0.0" d="m788.6588 385.5748l841.2284 0l0 98.14172l-841.2284 0z" fill-rule="nonzero"></path><path fill="#d9d9d9" d="m0 -0.001312336l889.6378 0l0 172.34645l-889.6378 0z" fill-rule="nonzero"></path><path fill="#000000" d="m67.73108 131.8787l0 -74.234375l16.765625 0l0 74.234375l-16.765625 0zm0 -98.5625l16.765625 0l0 16.90625l-16.765625 0l0 -16.90625zm47.480255 24.328125l41.21875 0l0 16.765625l-41.21875 0q-0.890625 0 -0.890625 0.890625l0 56.578125l-16.765625 0l0 -56.578125q0 -7.296875 5.1875 -12.46875q5.1875 -5.1875 12.46875 -5.1875zm67.459015 0l40.0625 0q7.296875 0 12.484375 5.1875q5.1875 5.171875 5.1875 12.46875l0 38.921875q0 7.28125 -5.1875 12.46875q-5.1875 5.1875 -12.484375 5.1875l-40.0625 0q-7.296875 0 -12.484375 -5.1875q-5.171875 -5.1875 -5.171875 -12.46875l0 -38.921875q0 -7.296875 5.171875 -12.46875q5.1875 -5.1875 12.484375 -5.1875zm40.0625 16.765625l-40.0625 0q-0.890625 0 -0.890625 0.890625l0 38.921875q0 0.890625 0.890625 0.890625l40.0625 0q0.90625 0 0.90625 -0.890625l0 -38.921875q0 -0.890625 -0.90625 -0.890625zm88.966644 -16.765625q7.296875 0 12.46875 5.1875q5.1875 5.171875 5.1875 12.46875l0 56.578125l-16.765625 0l0 -56.578125q0 -0.890625 -0.890625 -0.890625l-40.0625 0q-0.890625 0 -0.890625 0.890625l0 56.578125l-16.78125 0l0 -74.234375l57.734375 0zm84.35364 28.03125l0 16.765625l-52.359375 0l0 -16.765625l52.359375 0zm86.78537 -28.03125l19.328125 0l-40.96875 74.234375l-15.359375 0l-40.828125 -74.234375l19.328125 0l29.1875 53.875l29.3125 -53.875zm27.26062 74.234375l0 -74.234375l16.765625 0l0 74.234375l-16.765625 0zm0 -98.5625l16.765625 0l0 16.90625l-16.765625 0l0 -16.90625zm104.698975 41.984375l0 3.203125l-16.765625 0l0 -3.203125q0 -0.890625 -0.890625 -0.890625l-40.0625 0q-0.90625 0 -0.90625 0.890625l0 10.234375q0 0.78125 0.90625 0.78125l40.0625 0q7.421875 0 12.53125 5.1875q5.125 5.171875 5.125 12.46875l0 10.25q0 7.28125 -5.125 12.46875q-5.109375 5.1875 -12.53125 5.1875l-40.0625 0q-7.296875 0 -12.484375 -5.1875q-5.1875 -5.1875 -5.1875 -12.46875l0 -3.203125l16.765625 0l0 3.203125q0 0.890625 0.90625 0.890625l40.0625 0q0.890625 0 0.890625 -0.890625l0 -10.25q0 -0.765625 -0.890625 -0.765625l-40.0625 0q-7.296875 0 -12.484375 -5.1875q-5.1875 -5.1875 -5.1875 -12.484375l0 -10.234375q0 -7.296875 5.1875 -12.46875q5.1875 -5.1875 12.484375 -5.1875l40.0625 0q7.421875 0 12.53125 5.1875q5.125 5.171875 5.125 12.46875zm12.933044 56.578125l0 -74.234375l16.765625 0l0 74.234375l-16.765625 0zm0 -98.5625l16.765625 0l0 16.90625l-16.765625 0l0 -16.90625zm47.355286 24.328125l40.0625 0q7.296875 0 12.484375 5.1875q5.1875 5.171875 5.1875 12.46875l0 38.921875q0 7.28125 -5.1875 12.46875q-5.1875 5.1875 -12.484375 5.1875l-40.0625 0q-7.296875 0 -12.484375 -5.1875q-5.171875 -5.1875 -5.171875 -12.46875l0 -38.921875q0 -7.296875 5.171875 -12.46875q5.1875 -5.1875 12.484375 -5.1875zm40.0625 16.765625l-40.0625 0q-0.890625 0 -0.890625 0.890625l0 38.921875q0 0.890625 0.890625 0.890625l40.0625 0q0.90625 0 0.90625 -0.890625l0 -38.921875q0 -0.890625 -0.90625 -0.890625zm88.966675 -16.765625q7.296875 0 12.46875 5.1875q5.1875 5.171875 5.1875 12.46875l0 56.578125l-16.765625 0l0 -56.578125q0 -0.890625 -0.890625 -0.890625l-40.0625 0q-0.890625 0 -0.890625 0.890625l0 56.578125l-16.78125 0l0 -74.234375l57.734375 0z" fill-rule="nonzero"></path></g></svg>

